<?xml version="1.0" encoding="utf-8"?>
<!-- Generator: Adobe Illustrator 16.0.0, SVG Export Plug-In . SVG Version: 6.00 Build 0)  -->
<!DOCTYPE svg PUBLIC "-//W3C//DTD SVG 1.1//EN" "http://www.w3.org/Graphics/SVG/1.1/DTD/svg11.dtd">
<svg version="1.1" id="Main" xmlns="http://www.w3.org/2000/svg" xmlns:xlink="http://www.w3.org/1999/xlink" x="0px" y="0px"
	 width="445.478px" height="358.482px" viewBox="0 0 445.478 358.482" enable-background="new 0 0 445.478 358.482"
	 xml:space="preserve">
<g id="_x31_">
	<path stroke="#FFFFFF" stroke-miterlimit="10" d="M138.899,17.669c0,0-8.25,54.365-65.25,70.428c-57,16.062,32.625,0,32.625,0
		l32.625,179.157V17.669z"/>
</g>
<g id="Text">
	<g>
		<path d="M50.726,296.902c-0.328,4.734-0.785,12.996-1.371,24.785c-0.352,8.672-0.645,18.645-0.879,29.918
			c-3.07-2.414-7.746-6.012-14.027-10.793c-2.719-1.898-6.773-4.746-12.164-8.543l-0.352,18.633h-11.32
			c-0.188-4.758-0.621-13.734-1.301-26.93c-0.586-10.688-1.184-19.711-1.793-27.07h17.648l13.078,12.375
			c0-2.836-0.047-5.063-0.141-6.68c-0.07-1.43-0.211-3.328-0.422-5.695H50.726z"/>
		<path d="M101.21,296.902l-0.809,22.746c-0.234,6.492-0.352,16.313-0.352,29.461c-6,2.156-12.117,3.234-18.352,3.234
			c-7.688,0-13.535-1.535-17.543-4.605c-3.398-2.602-5.801-6.656-7.207-12.164c-0.82-3.164-1.594-8.953-2.32-17.367
			c-0.703-7.781-1.137-14.883-1.301-21.305h22.676c-0.117,3.094-0.258,8.133-0.422,15.117c-0.07,3.891-0.047,9.41,0.07,16.559
			c0.023,5.438,0.492,9.105,1.406,11.004c0.961,2.016,2.883,3.023,5.766,3.023c0.82,0,1.734-0.234,2.742-0.703
			c0-4.828-0.141-12.504-0.422-23.027c-0.234-5.273-0.668-12.598-1.301-21.973H101.21z"/>
		<path d="M160.905,296.902c-0.328,4.922-0.809,13.898-1.441,26.93c-0.328,8.016-0.574,17.039-0.738,27.07h-12.727l-0.352-16.559
			l-12.41,17.859l-13.395-17.719l-0.352,16.418h-12.656c-0.164-5.367-0.48-14.438-0.949-27.211
			c-0.328-7.359-0.926-16.289-1.793-26.789h20.145c0.703,1.711,1.91,4.477,3.621,8.297c1.313,2.719,3.105,5.93,5.379,9.633
			c1.008-1.594,2.859-4.887,5.555-9.879c0.961-1.852,2.191-4.535,3.691-8.051H160.905z"/>
		<path d="M200.737,296.902l-1.512,22.254c-0.867-0.141-2.742-0.387-5.625-0.738c-1.969-0.188-4.125-0.305-6.469-0.352l-0.527,6.715
			c2.578,0.07,6.785,0.012,12.621-0.176c-0.258,0.867-0.668,2.484-1.23,4.852c-0.328,1.43-0.621,3.082-0.879,4.957
			c-0.68-0.164-2.379-0.375-5.098-0.633c-1.266-0.07-3.141-0.094-5.625-0.07l-0.352,7.84c1.758-0.023,4.992-0.176,9.703-0.457
			c0.891-0.07,2.355-0.352,4.395-0.844c-0.188,0.727-0.621,2.473-1.301,5.238c-0.328,1.43-0.727,3.234-1.195,5.414h-31.465
			l-1.02-27.563c-0.188-6.305-0.645-15.117-1.371-26.438H200.737z"/>
		<path d="M250.975,317.117c0,4.313-1.207,8.133-3.621,11.461c-2.133,2.906-4.805,4.992-8.016,6.258
			c0.68,1.055,2.355,3.27,5.027,6.645c1.336,1.547,3.375,3.586,6.117,6.117c-1.102,0.398-3.527,1.406-7.277,3.023
			c-2.625,1.195-5.098,2.367-7.418,3.516c-0.68-0.844-2.191-3.023-4.535-6.539c-1.078-1.781-2.66-4.781-4.746-9h-0.07l-0.352,12.305
			h-19.792c-0.258-5.109-0.621-13.535-1.09-25.277c-0.211-6.914-0.691-16.488-1.441-28.723c6.445-0.68,12.328-1.02,17.648-1.02
			C241.12,295.883,250.975,302.961,250.975,317.117z M235.014,324.711c0-2.227-0.938-3.82-2.813-4.781
			c-1.383-0.703-3.117-1.008-5.203-0.914l-0.211,12.023c1.945,0,3.68-0.434,5.203-1.301
			C234.006,328.613,235.014,326.938,235.014,324.711z"/>
		<path d="M296.01,350.902h-19.23l-1.301-4.676c-0.539,0.211-1.887,0.926-4.043,2.145c-1.383,0.891-2.918,2.074-4.605,3.551
			l-2.004-4.254c-0.398-0.844-0.973-2.027-1.723-3.551l-1.898,6.785H251.01c1.5-5.789,3.82-15.34,6.961-28.652
			c1.922-8.906,3.527-17.355,4.816-25.348h21.129c0.656,3.68,2.449,12.246,5.379,25.699
			C290.913,329.633,293.151,339.066,296.01,350.902z M273.827,339.371c-0.398-1.242-1.102-3.258-2.109-6.047
			c-0.609-1.547-1.535-3.68-2.777-6.398c-0.539,1.359-1.383,3.586-2.531,6.68c-0.633,1.781-1.383,4.207-2.25,7.277
			c0.703,0,2.297-0.141,4.781-0.422C270.44,340.25,272.069,339.887,273.827,339.371z"/>
		<path d="M340.237,296.902l-1.02,22.113c-0.914-0.141-2.379-0.316-4.395-0.527c-1.242-0.07-3.258-0.141-6.047-0.211
			c-0.141,1.383-0.387,4.723-0.738,10.02c-0.258,5.133-0.68,12.668-1.266,22.605h-17.016c-0.188-4.734-0.539-12.176-1.055-22.324
			c-0.234-3.516-0.48-6.949-0.738-10.301l-5.555,0.211l-5.027,0.527l-0.879-22.113H340.237z"/>
		<path d="M389.456,322.742c0,8.273-2.133,15.27-6.398,20.988c-4.477,5.977-10.207,8.965-17.191,8.965
			c-7.195,0-13.02-3.012-17.473-9.035c-4.195-5.672-6.293-12.645-6.293-20.918c0-8.836,2.285-15.773,6.855-20.813
			c4.313-4.734,9.949-7.102,16.91-7.102c6.844,0,12.422,2.379,16.734,7.137C387.17,307.027,389.456,313.953,389.456,322.742z
			 M372.545,328.93c0-6.516-2.203-9.773-6.609-9.773c-4.289,0-6.434,3.281-6.434,9.844c0,2.625,0.563,5.074,1.688,7.348
			c1.266,2.555,2.824,3.832,4.676,3.832c1.805,0,3.398-1.301,4.781-3.902C371.913,333.91,372.545,331.461,372.545,328.93z"/>
		<path d="M439.342,317.117c0,4.313-1.207,8.133-3.621,11.461c-2.133,2.906-4.805,4.992-8.016,6.258
			c0.68,1.055,2.355,3.27,5.027,6.645c1.336,1.547,3.375,3.586,6.117,6.117c-1.102,0.398-3.527,1.406-7.277,3.023
			c-2.625,1.195-5.098,2.367-7.418,3.516c-0.68-0.844-2.191-3.023-4.535-6.539c-1.078-1.781-2.66-4.781-4.746-9h-0.07l-0.352,12.305
			h-19.793c-0.258-5.109-0.621-13.535-1.09-25.277c-0.211-6.914-0.691-16.488-1.441-28.723c6.445-0.68,12.328-1.02,17.648-1.02
			C429.487,295.883,439.342,302.961,439.342,317.117z M423.381,324.711c0-2.227-0.938-3.82-2.813-4.781
			c-1.383-0.703-3.117-1.008-5.203-0.914l-0.211,12.023c1.945,0,3.68-0.434,5.203-1.301
			C422.374,328.613,423.381,326.938,423.381,324.711z"/>
	</g>
</g>
<g id="_x33_">
	<path stroke="#FFFFFF" stroke-miterlimit="10" d="M324.399,23.587c106.166,73.306-44,109-10.5,123.882s119.5,87.118,56.5,115.796
		s-113-2.678-113-2.678s70,15,77.037-26s-65.037-89-65.037-89s63-6,65-62.848s-77-63.152-77-63.152S282.399-5.413,324.399,23.587z"
		/>
</g>
<g id="_x32_">
	<path stroke="#FFFFFF" stroke-miterlimit="10" d="M148.721,33.31c0,0,237,9-5,172c-242,163,143,0,143,0l-111.442,12
		c0,0,167.442-100,111.442-155S148.721,33.31,148.721,33.31z"/>
</g>
</svg>
